# xmcd
#
# Track frame offsets:
#	150
#	12204
#	23446
#	32943
#
# Disc length: 580 seconds
#
# Revision: 1
# Processed by: cddbd v1.5.2PL0 Copyright (c) Steve Scherf et al.
# Submitted via: audiograbber 1.83.01
#
DISCID=21024204
DTITLE=Hank Cash - Kings of Country
DYEAR=1900
DGENRE=Country
TTITLE0=Folsom Prison Blues
TTITLE1=Big River
TTITLE2=Moaning the Blues
TTITLE3=I walk the line
EXTD=
EXTT0=
EXTT1=
EXTT2=
EXTT3=
PLAYORDER=
